<?xml version="1.0" standalone="no"?>
<!DOCTYPE svg PUBLIC "-//W3C//DTD SVG 20010904//EN"
 "http://www.w3.org/TR/2001/REC-SVG-20010904/DTD/svg10.dtd">
<svg version="1.0" xmlns="http://www.w3.org/2000/svg"
 width="1024.000000pt" height="1024.000000pt" viewBox="0 0 1024.000000 1024.000000"
 preserveAspectRatio="xMidYMid meet">
<metadata>
Created by potrace 1.11, written by Peter Selinger 2001-2013
</metadata>
<g transform="translate(0.000000,1024.000000) scale(0.100000,-0.100000)"
fill="#000000" stroke="none">
<path d="M4889 9115 c-2 -1 -47 -6 -99 -9 -52 -4 -108 -9 -125 -11 -16 -2 -48
-6 -70 -9 -52 -5 -161 -24 -255 -43 -41 -8 -85 -17 -96 -19 -113 -22 -406
-110 -554 -167 -309 -119 -698 -330 -920 -499 -62 -47 -210 -164 -255 -201
-59 -49 -380 -368 -415 -413 -14 -17 -61 -76 -105 -130 -86 -105 -220 -292
-238 -331 -5 -13 -14 -23 -19 -23 -4 0 -8 -4 -8 -10 0 -5 -15 -34 -34 -63
-104 -163 -252 -468 -326 -672 -91 -252 -165 -530 -196 -735 -3 -19 -7 -46
-10 -60 -2 -14 -7 -47 -10 -75 -3 -27 -8 -61 -10 -75 -26 -162 -26 -661 1
-907 5 -42 31 -220 39 -258 2 -11 6 -38 10 -60 4 -22 25 -110 46 -195 155
-617 437 -1159 857 -1650 64 -75 313 -325 398 -399 150 -133 438 -341 585
-423 25 -14 63 -35 85 -48 373 -213 898 -398 1290 -455 23 -3 52 -7 65 -10 44
-9 182 -25 275 -32 171 -14 746 -5 775 12 3 2 39 6 80 10 41 4 77 9 80 10 3 2
26 6 50 10 62 8 234 44 295 61 28 7 61 15 75 18 32 6 292 86 305 94 6 4 15 7
20 8 19 3 220 84 248 100 15 8 27 13 27 11 0 -8 310 151 400 206 156 93 457
304 510 357 3 3 37 32 75 64 99 84 379 367 450 456 33 41 62 77 66 80 15 14
134 178 196 270 295 441 488 907 599 1450 8 41 17 93 20 115 3 22 7 50 10 63
8 40 24 174 32 267 14 177 5 745 -13 775 -1 3 -6 37 -9 75 -4 39 -9 77 -11 85
-2 8 -6 31 -9 51 -3 20 -17 92 -31 160 -140 665 -436 1264 -884 1789 -62 73
-331 344 -401 405 -496 431 -1084 731 -1718 880 -120 28 -247 52 -322 62 -25
3 -52 6 -60 8 -8 1 -46 5 -85 9 -38 4 -81 10 -95 13 -28 5 -576 14 -581 8z"/>
</g>
</svg>
